<svg width="352" height="62" viewBox="0 0 352 62" fill="none" xmlns="http://www.w3.org/2000/svg">
<path fill-rule="evenodd" clip-rule="evenodd" d="M259.419 61.187C251.295 61.187 244.264 58.259 238.521 52.484C232.781 46.713 229.867 39.638 229.867 31.466C229.867 23.298 232.776 16.226 238.521 10.454C244.264 4.67498 251.295 1.75098 259.419 1.75098C267.543 1.75098 274.573 4.67498 280.315 10.454C286.058 16.225 288.969 23.3 288.969 31.466C288.969 32.405 288.649 33.185 287.98 33.853C287.321 34.523 286.542 34.845 285.613 34.845H236.76L236.986 36.048C237.819 40.443 239.934 44.364 243.266 47.714C247.696 52.173 253.134 54.431 259.422 54.431C265.096 54.431 270.043 52.601 274.138 48.992C274.758 48.515 275.444 48.285 276.228 48.285C277.157 48.285 277.933 48.611 278.6 49.281C279.262 49.949 279.586 50.726 279.586 51.664C279.586 52.598 279.274 53.377 278.643 54.06C273.222 58.791 266.76 61.187 259.419 61.187ZM259.419 8.50298C253.132 8.50298 247.693 10.765 243.263 15.22C239.931 18.575 237.817 22.499 236.984 26.888L236.757 28.089H282.085L281.856 26.888C281.021 22.497 278.906 18.576 275.578 15.22C271.144 10.765 265.709 8.50298 259.419 8.50298Z" fill="#1B1A43"/>
<path fill-rule="evenodd" clip-rule="evenodd" d="M132.25 60.2909C124.127 60.2909 117.096 57.3649 111.352 51.5899C105.611 45.8149 102.696 38.7459 102.696 30.5739C102.696 22.4059 105.61 15.3359 111.352 9.55793C117.093 3.78493 124.127 0.856934 132.25 0.856934C140.375 0.856934 147.404 3.78493 153.148 9.55793C158.884 15.3349 161.802 22.4059 161.802 30.5739C161.802 38.7419 158.888 45.8119 153.148 51.5899C147.406 57.3649 140.375 60.2909 132.25 60.2909ZM132.25 7.60893C125.962 7.60893 120.524 9.87293 116.095 14.3299C111.66 18.7829 109.414 24.2519 109.414 30.5739C109.414 36.8939 111.66 42.3629 116.095 46.8199C120.527 51.2789 125.962 53.5389 132.25 53.5389C138.535 53.5389 143.977 51.2789 148.406 46.8199C152.839 42.3629 155.087 36.8939 155.087 30.5739C155.087 24.2519 152.839 18.7829 148.406 14.3299C143.974 9.87093 138.537 7.60893 132.25 7.60893Z" fill="#1B1A43"/>
<path fill-rule="evenodd" clip-rule="evenodd" d="M280.555 10.2139C274.743 4.37189 267.635 1.41089 259.418 1.41089C251.199 1.41089 244.091 4.37189 238.282 10.2139C232.473 16.0519 229.527 23.2059 229.527 31.4679C229.527 39.7339 232.475 46.8819 238.282 52.7219C244.089 58.5639 251.197 61.5249 259.418 61.5249C266.839 61.5249 273.381 59.0989 278.858 54.3159L278.88 54.2929C279.575 53.5449 279.917 52.6859 279.917 51.6699C279.917 50.6349 279.563 49.7809 278.831 49.0469C278.101 48.3109 277.244 47.9489 276.224 47.9489C275.363 47.9489 274.613 48.2069 273.912 48.7399C269.883 52.2949 265.007 54.0949 259.415 54.0949C253.22 54.0949 247.861 51.8719 243.493 47.4799C240.209 44.1789 238.127 40.3159 237.305 35.9899L237.154 35.1909H285.61C286.633 35.1909 287.487 34.8299 288.218 34.0909C288.947 33.3589 289.304 32.5009 289.304 31.4699C289.307 23.2079 286.364 16.0559 280.555 10.2139ZM237.162 27.7509L237.314 26.9499C238.131 22.6279 240.216 18.7609 243.502 15.4599C247.864 11.0669 253.223 8.84289 259.422 8.84289C265.615 8.84289 270.974 11.0699 275.339 15.4599C278.623 18.7609 280.701 22.6259 281.527 26.9499L281.679 27.7509H237.162Z" fill="#1B1A43"/>
<path fill-rule="evenodd" clip-rule="evenodd" d="M24.513 8.2198C19.909 8.2198 15.922 9.80179 12.668 12.9168C9.41496 16.0378 7.76196 19.8548 7.76196 24.2628V57.1888C7.76196 58.2198 7.39096 59.0758 6.62496 59.8118C5.85796 60.5478 4.96096 60.9038 3.88696 60.9038C2.81196 60.9038 1.91396 60.5488 1.14696 59.8118C0.380958 59.0758 0.00695801 58.2198 0.00695801 57.1888V24.2628C0.00695801 17.8218 2.42896 12.2398 7.19496 7.6688C11.961 3.1008 17.781 0.789795 24.51 0.789795L24.514 0.791795H24.586C31.28 0.809795 37.086 3.1218 41.838 7.6688C42.837 8.6278 43.755 9.6548 44.573 10.7198L45.141 11.4598L45.71 10.7198C46.524 9.6578 47.445 8.6318 48.445 7.6688C53.216 3.1028 59.042 0.789795 65.766 0.789795C72.495 0.789795 78.316 3.1008 83.08 7.6688C87.847 12.2388 90.268 17.8208 90.268 24.2628V57.1888C90.268 58.2198 89.894 59.0758 89.128 59.8118C88.359 60.5478 87.463 60.9038 86.388 60.9038C85.314 60.9038 84.414 60.5488 83.65 59.8118C82.884 59.0758 82.513 58.2198 82.513 57.1888V24.2628C82.513 19.8548 80.859 16.0378 77.607 12.9168C74.353 9.80179 70.365 8.2198 65.762 8.2198C61.161 8.2198 57.176 9.80179 53.923 12.9168C50.667 16.0378 49.017 19.8508 49.017 24.2628V57.1888C49.017 58.2198 48.643 59.0758 47.878 59.8118C47.108 60.5478 46.212 60.9038 45.138 60.9038C44.062 60.9038 43.164 60.5488 42.4 59.8118C41.632 59.0778 41.256 58.2198 41.256 57.1888V24.2628C41.256 19.8548 39.607 16.0378 36.356 12.9168C33.108 9.80779 29.136 8.2288 24.551 8.2218" fill="#1B1A43"/>
<path fill-rule="evenodd" clip-rule="evenodd" d="M132.25 0.514893C124.031 0.514893 116.922 3.47589 111.113 9.31989C105.306 15.1599 102.359 22.3119 102.359 30.5719C102.359 38.8359 105.306 45.9879 111.113 51.8279C116.925 57.6679 124.031 60.6289 132.252 60.6289C140.47 60.6289 147.576 57.6719 153.391 51.8279C159.198 45.9859 162.142 38.8339 162.142 30.5719C162.142 22.3099 159.198 15.1599 153.391 9.31989C147.574 3.47589 140.467 0.514893 132.25 0.514893ZM148.169 46.5819C143.803 50.9729 138.441 53.1989 132.246 53.1989C126.053 53.1989 120.693 50.9699 116.328 46.5819C111.963 42.1909 109.748 36.8049 109.748 30.5719C109.748 24.3419 111.963 18.9589 116.328 14.5659C120.692 10.1709 126.053 7.94689 132.246 7.94689C138.441 7.94689 143.802 10.1739 148.169 14.5659C152.531 18.9589 154.747 24.3409 154.747 30.5719C154.747 36.8029 152.534 42.1909 148.169 46.5819Z" fill="#1B1A43"/>
<path fill-rule="evenodd" clip-rule="evenodd" d="M219.737 1.25C218.713 1.25 217.869 1.596 217.164 2.305L217.131 2.34C216.868 2.574 216.63 2.889 216.409 3.301L195.73 48.733L175.042 3.28C174.822 2.882 174.593 2.555 174.364 2.327C173.609 1.6 172.743 1.253 171.717 1.253C170.692 1.253 169.839 1.608 169.111 2.343C168.382 3.079 168.025 3.937 168.025 4.964C168.025 5.485 168.11 5.974 168.291 6.384L192.521 59.452C192.74 59.931 192.933 60.159 193.058 60.264L193.071 60.276L193.102 60.307C193.778 61.014 194.635 61.36 195.728 61.36C196.828 61.36 197.69 61.036 198.366 60.356C198.563 60.151 198.76 59.846 198.938 59.452L223.158 6.401C223.341 5.975 223.429 5.495 223.429 4.962C223.429 3.935 223.074 3.077 222.343 2.343C221.613 1.603 220.76 1.25 219.737 1.25Z" fill="#1B1A43"/>
<path fill-rule="evenodd" clip-rule="evenodd" d="M195.727 61.0209C194.73 61.0209 193.95 60.7119 193.341 60.0759L193.309 60.0389L193.273 60.0099C193.197 59.9379 193.026 59.7539 192.82 59.3089L168.591 6.24489C168.44 5.88589 168.36 5.44589 168.36 4.96789C168.36 4.03189 168.681 3.25289 169.348 2.58289C170.009 1.91289 170.785 1.59089 171.713 1.59089C172.654 1.59089 173.443 1.90889 174.127 2.57089C174.325 2.76989 174.537 3.07089 174.743 3.44389L195.724 49.5479L216.704 3.44389C216.899 3.08689 217.112 2.80289 217.346 2.59189L217.39 2.55289C218.036 1.90289 218.801 1.58789 219.733 1.58789C220.666 1.58789 221.442 1.90989 222.106 2.57989C222.764 3.24989 223.092 4.02889 223.092 4.96489C223.092 5.44489 223.009 5.88289 222.847 6.26589L198.622 59.3069C198.422 59.7579 198.235 59.9959 198.122 60.1159C197.514 60.7239 196.732 61.0209 195.727 61.0209Z" fill="#1B1A43"/>
<path fill-rule="evenodd" clip-rule="evenodd" d="M305.567 15.0119C303.971 13.1309 303.268 10.9519 303.463 8.47391C303.672 6.01091 304.717 3.98191 306.598 2.38491C308.285 0.936914 310.225 0.211914 312.418 0.211914C315.015 0.211914 317.284 1.27991 319.225 3.41391C319.553 3.80191 319.845 4.20591 320.098 4.62291C320.277 4.90691 320.368 5.22691 320.368 5.58691C320.368 6.07791 320.192 6.50091 319.842 6.85191C319.492 7.20291 319.07 7.37791 318.577 7.37791C318.01 7.37791 317.592 7.19791 317.323 6.84091C317.053 6.48191 316.777 6.11591 316.495 5.74291C315.523 4.60791 314.307 3.98091 312.846 3.86191C311.367 3.74191 310.06 4.16291 308.927 5.12691C307.792 6.08891 307.165 7.30191 307.046 8.76491C306.928 10.2439 307.353 11.5499 308.322 12.6829C309.112 13.4459 310.397 14.0559 312.173 14.5209C315.293 15.2079 317.666 16.4749 319.293 18.3259C320.981 20.3259 321.823 22.5959 321.823 25.1339C321.823 25.4769 321.807 25.8209 321.779 26.1619C321.539 29.1179 320.294 31.5519 318.039 33.4609C316.024 35.1789 313.733 36.0369 311.167 36.0369C307.956 36.0369 305.194 34.7669 302.882 32.2299C302.569 31.8869 302.285 31.5209 302.031 31.1309C301.792 30.8189 301.673 30.4609 301.673 30.0579C301.673 29.5659 301.848 29.1439 302.199 28.7919C302.549 28.4419 302.971 28.2669 303.464 28.2669C304.105 28.2669 304.612 28.5429 304.987 29.0949C305.166 29.3789 305.375 29.6469 305.614 29.9019C306.882 31.4229 308.509 32.2669 310.494 32.4309C312.465 32.5799 314.203 32.0169 315.711 30.7419C317.219 29.4649 318.055 27.8419 318.218 25.8719C318.383 23.8869 317.829 22.1409 316.562 20.6329C315.458 19.3949 313.734 18.4689 311.39 17.8579C309.12 17.4529 307.179 16.5049 305.567 15.0119Z" fill="#00E6ED"/>
<path fill-rule="evenodd" clip-rule="evenodd" d="M326.519 2.01091C326.519 1.51691 326.696 1.09291 327.047 0.740914C327.4 0.388914 327.823 0.211914 328.318 0.211914C328.811 0.211914 329.236 0.389914 329.588 0.740914C329.941 1.09291 330.117 1.51591 330.117 2.01091V16.4039H348.106V2.01091C348.106 1.51691 348.283 1.09291 348.635 0.740914C348.987 0.388914 349.41 0.211914 349.905 0.211914C350.4 0.211914 350.824 0.389914 351.176 0.740914C351.528 1.09291 351.704 1.51591 351.704 2.01091V34.3939C351.704 34.8889 351.527 35.3129 351.176 35.6649C350.823 36.0189 350.4 36.1929 349.905 36.1929C349.411 36.1929 348.988 36.0179 348.635 35.6649C348.282 35.3129 348.106 34.8899 348.106 34.3939V20.0019H330.117V34.3939C330.117 34.8889 329.94 35.3129 329.588 35.6649C329.236 36.0189 328.812 36.1929 328.318 36.1929C327.823 36.1929 327.399 36.0179 327.047 35.6649C326.695 35.3129 326.519 34.8899 326.519 34.3939V2.01091Z" fill="#00E6ED"/>
</svg>
