<svg width="234" height="166" viewBox="0 0 234 166" fill="none" xmlns="http://www.w3.org/2000/svg">
<path fill-rule="evenodd" clip-rule="evenodd" d="M3.676 79.19V79.433L3.674 79.19C2.697 79.191 1.769 79.576 1.076 80.258C0.388 80.946 0.002 81.872 0 82.84V82.848C0.002 83.816 0.39 84.742 1.076 85.429C1.766 86.114 2.698 86.497 3.674 86.501C4.651 86.499 5.584 86.114 6.274 85.432C6.962 84.743 7.349 83.816 7.352 82.848C7.349 81.879 6.965 80.952 6.274 80.265C5.584 79.576 4.649 79.191 3.676 79.19Z" fill="#1B1A43"/>
<path fill-rule="evenodd" clip-rule="evenodd" d="M233.114 89.215C232.533 87.707 231.563 86.396 230.302 85.392C229.046 84.391 227.474 83.704 225.781 83.493C225.774 83.493 225.772 83.492 225.769 83.492H225.765C225.39 83.446 225.019 83.425 224.64 83.425C223.51 83.425 222.414 83.634 221.408 84.02C219.887 84.598 218.57 85.561 217.557 86.815C216.554 88.062 215.863 89.626 215.65 91.313V91.317V91.321C215.602 91.694 215.58 92.066 215.58 92.438V92.444C215.58 93.564 215.794 94.658 216.181 95.659C216.76 97.166 217.732 98.478 218.993 99.481C220.253 100.481 221.827 101.169 223.525 101.379H223.53C223.905 101.426 224.283 101.448 224.65 101.448C225.785 101.448 226.881 101.238 227.891 100.854C229.409 100.275 230.727 99.314 231.734 98.06C232.745 96.81 233.435 95.245 233.647 93.556V93.552V93.549V93.544C233.696 93.177 233.715 92.809 233.715 92.443V92.428V92.418C233.711 91.304 233.5 90.214 233.114 89.215Z" fill="#1B1A43"/>
<path fill-rule="evenodd" clip-rule="evenodd" d="M222.999 103.178C221.978 102.776 220.896 102.576 219.841 102.576H219.828C218.112 102.578 216.471 103.085 215.077 104.008C213.681 104.93 212.524 106.297 211.865 107.951C211.865 107.951 211.86 107.951 211.86 107.952C211.457 108.969 211.256 110.04 211.256 111.092V111.1C211.256 112.805 211.766 114.442 212.695 115.829C213.623 117.218 215.003 118.37 216.666 119.022C217.687 119.425 218.77 119.627 219.833 119.627C221.548 119.624 223.19 119.116 224.59 118.192C225.986 117.271 227.146 115.899 227.799 114.246L227.804 114.235L227.807 114.232C228.21 113.219 228.411 112.147 228.411 111.1V111.098C228.411 109.394 227.899 107.756 226.97 106.369C226.044 104.983 224.664 103.833 222.999 103.178Z" fill="#1B1A43"/>
<path fill-rule="evenodd" clip-rule="evenodd" d="M215.232 121.475C214.523 120.958 213.745 120.569 212.931 120.311C212.122 120.053 211.289 119.927 210.462 119.927C209.221 119.927 207.99 120.209 206.859 120.766C205.734 121.324 204.711 122.162 203.929 123.226C203.408 123.932 203.015 124.707 202.758 125.511C202.498 126.317 202.371 127.145 202.371 127.964C202.373 129.199 202.654 130.424 203.218 131.543C203.777 132.664 204.619 133.682 205.691 134.457C206.398 134.973 207.181 135.363 207.996 135.619C208.803 135.875 209.634 136.002 210.457 136.002C211.703 136.002 212.931 135.719 214.061 135.164C215.186 134.609 216.21 133.768 216.997 132.705C217.516 132 217.905 131.225 218.167 130.418C218.422 129.615 218.554 128.785 218.554 127.967C218.554 126.729 218.264 125.508 217.705 124.385C217.147 123.268 216.304 122.25 215.232 121.475Z" fill="#1B1A43"/>
<path fill-rule="evenodd" clip-rule="evenodd" d="M203.024 137.181C203.019 137.177 203.011 137.171 203.008 137.165L203.006 137.163H203.004C202.268 136.276 201.345 135.583 200.344 135.128C199.335 134.665 198.249 134.435 197.158 134.435C196.31 134.435 195.459 134.574 194.637 134.863C193.817 135.15 193.031 135.586 192.332 136.158H192.33C192.324 136.164 192.314 136.168 192.309 136.176C191.42 136.908 190.718 137.828 190.263 138.826C189.796 139.828 189.561 140.902 189.561 141.992C189.561 142.832 189.702 143.68 189.996 144.498C190.284 145.312 190.725 146.094 191.298 146.791C192.039 147.686 192.969 148.383 193.979 148.846C194.984 149.311 196.075 149.535 197.166 149.539C198.011 149.539 198.866 149.398 199.687 149.111C200.507 148.822 201.296 148.384 201.996 147.816C202.894 147.08 203.598 146.156 204.061 145.154C204.529 144.152 204.76 143.072 204.76 141.988C204.76 141.138 204.615 140.299 204.327 139.482C204.041 138.662 203.601 137.874 203.024 137.181Z" fill="#1B1A43"/>
<path fill-rule="evenodd" clip-rule="evenodd" d="M187.875 152.259C187.873 151.261 187.652 150.238 187.209 149.286C186.609 148.015 185.657 146.981 184.532 146.284C183.409 145.591 182.11 145.216 180.769 145.214H180.756C179.751 145.214 178.718 145.429 177.752 145.88H177.751L177.747 145.882C177.747 145.884 177.746 145.884 177.746 145.884C177.742 145.888 177.736 145.888 177.734 145.894L177.732 145.888L177.728 145.894H177.731C176.465 146.486 175.427 147.429 174.733 148.539C174.036 149.654 173.662 150.939 173.656 152.269V152.287C173.656 153.293 173.876 154.316 174.324 155.269V155.271C174.921 156.541 175.875 157.58 177.002 158.275C178.123 158.966 179.422 159.341 180.764 159.343H180.772C181.779 159.343 182.811 159.124 183.77 158.679L183.778 158.673L183.801 158.659C185.068 158.067 186.099 157.126 186.79 156.018C187.486 154.901 187.867 153.61 187.87 152.276V152.258H187.875V152.259Z" fill="#1B1A43"/>
<path fill-rule="evenodd" clip-rule="evenodd" d="M169.528 156.831C169.207 155.085 168.258 153.567 166.977 152.52C165.695 151.467 164.053 150.852 162.304 150.852C161.862 150.852 161.411 150.889 160.957 150.973C159.203 151.295 157.678 152.239 156.626 153.512H156.628C155.57 154.785 154.956 156.416 154.951 158.157C154.951 158.596 154.99 159.048 155.075 159.495H155.078C155.08 159.503 155.08 159.513 155.083 159.52V159.524L155.087 159.528C155.416 161.257 156.358 162.76 157.632 163.799H157.629C158.911 164.846 160.554 165.463 162.299 165.463C162.745 165.463 163.192 165.426 163.637 165.344L163.657 165.34L163.662 165.338C165.411 165.018 166.933 164.074 167.976 162.803C169.036 161.532 169.655 159.899 169.655 158.16C169.653 157.72 169.614 157.275 169.528 156.831Z" fill="#1B1A43"/>
<path fill-rule="evenodd" clip-rule="evenodd" d="M148.139 154.613C147.119 153.443 145.664 152.613 144.014 152.357C143.993 152.353 143.94 152.339 143.86 152.332C143.651 152.305 143.467 152.303 143.309 152.295H143.307C143.232 152.291 143.119 152.275 142.963 152.275C141.259 152.275 139.669 152.902 138.456 153.949H138.458C137.248 154.994 136.387 156.5 136.163 158.203L136.161 158.205C136.156 158.226 136.159 158.25 136.156 158.267V158.271C136.123 158.542 136.098 158.82 136.098 159.093C136.098 160.786 136.729 162.368 137.786 163.573V163.571C138.829 164.77 140.333 165.618 142.033 165.846H142.035L142.066 165.856C142.363 165.893 142.668 165.913 142.961 165.913C144.665 165.913 146.255 165.282 147.466 164.237C148.671 163.194 149.532 161.694 149.76 160.001L149.762 159.999V159.991V159.983V159.979C149.803 159.682 149.822 159.379 149.822 159.088C149.822 157.399 149.188 155.817 148.134 154.611H148.139V154.613Z" fill="#1B1A43"/>
<path fill-rule="evenodd" clip-rule="evenodd" d="M126.933 147.771C126.121 147.416 125.249 147.244 124.397 147.244H124.379C123.146 147.248 121.96 147.599 120.941 148.252C119.919 148.9 119.062 149.871 118.545 151.053V151.057C118.191 151.869 118.016 152.725 118.016 153.571V153.6H118.017C118.023 154.821 118.377 155.995 119.03 157.004C119.683 158.024 120.658 158.871 121.844 159.385C122.656 159.739 123.523 159.908 124.368 159.91H124.38H124.387C125.621 159.91 126.812 159.555 127.835 158.904C128.856 158.254 129.715 157.285 130.23 156.101V156.105C130.584 155.293 130.763 154.431 130.763 153.584V153.576C130.76 152.351 130.406 151.164 129.747 150.15C129.095 149.132 128.125 148.283 126.933 147.771Z" fill="#1B1A43"/>
<path fill-rule="evenodd" clip-rule="evenodd" d="M108.034 139.163C107.013 138.55 105.865 138.245 104.742 138.245H104.727C103.652 138.249 102.597 138.515 101.656 139.032C100.709 139.548 99.8784 140.323 99.2814 141.296C99.2784 141.3 99.2784 141.304 99.2784 141.31C98.6644 142.318 98.3574 143.455 98.3574 144.568V144.588C98.3624 145.656 98.6314 146.699 99.1484 147.637C99.6694 148.576 100.437 149.399 101.411 149.987L101.414 149.989L101.424 149.997C101.426 149.997 101.428 149.999 101.431 150.001H101.432C102.453 150.616 103.6 150.917 104.723 150.919H104.729H104.731C105.809 150.917 106.866 150.649 107.809 150.13C108.745 149.624 109.561 148.862 110.151 147.907H110.154L110.175 147.878C110.176 147.874 110.179 147.87 110.181 147.868V147.866C110.795 146.86 111.098 145.725 111.102 144.62H111.105V144.599C111.105 144.597 111.109 144.595 111.109 144.593V144.591V144.585C111.109 143.513 110.838 142.466 110.312 141.524C109.792 140.579 109.014 139.749 108.034 139.163Z" fill="#1B1A43"/>
<path fill-rule="evenodd" clip-rule="evenodd" d="M88.0692 129.11C87.0442 128.37 85.8292 128.005 84.6352 128.005H84.6172C83.7092 128.006 82.8132 128.214 81.9952 128.62C81.1722 129.028 80.4282 129.643 79.8562 130.427V130.423C79.1132 131.447 78.7402 132.656 78.7402 133.84V133.867H78.7432C78.7462 134.762 78.9572 135.654 79.3612 136.465C79.7732 137.281 80.3882 138.024 81.1792 138.59C82.2072 139.326 83.4192 139.695 84.6062 139.695H84.6102H84.6202H84.6232C85.5312 139.695 86.4342 139.482 87.2552 139.078C88.0752 138.67 88.8202 138.057 89.3922 137.275C90.1322 136.254 90.4992 135.054 90.5062 133.879L90.5072 133.861V133.859V133.855V133.847V133.845C90.5062 132.943 90.2962 132.05 89.8852 131.23C89.4772 130.416 88.8582 129.678 88.0692 129.11Z" fill="#1B1A43"/>
<path fill-rule="evenodd" clip-rule="evenodd" d="M67.0165 117.525C65.9365 116.655 64.6205 116.219 63.3245 116.219H63.3035V116.22C62.4565 116.221 61.6125 116.405 60.8315 116.766C60.0465 117.127 59.3205 117.676 58.7535 118.381H58.7495C57.8745 119.452 57.4355 120.764 57.4355 122.051V122.063V122.071V122.089H57.4385C57.4395 122.927 57.6245 123.763 57.9855 124.535C58.3515 125.317 58.9045 126.033 59.6125 126.606C60.6905 127.473 62.0095 127.91 63.3005 127.91H63.3035H63.3065H63.3155C64.1695 127.91 65.0155 127.728 65.8025 127.364C66.5875 127 67.3105 126.453 67.8845 125.749L67.8925 125.734C68.7615 124.666 69.1975 123.358 69.1975 122.081V122.079V122.074V122.067C69.1975 121.219 69.0125 120.374 68.6485 119.595C68.2745 118.815 67.7265 118.097 67.0165 117.525Z" fill="#1B1A43"/>
<path fill-rule="evenodd" clip-rule="evenodd" d="M41.9205 103.463C40.9945 102.651 39.8295 102.239 38.6815 102.239H38.6725H38.6625H38.6525C37.9815 102.242 37.3145 102.379 36.6915 102.654C36.0615 102.929 35.4775 103.343 34.9995 103.884H35.0025C34.1825 104.8 33.7715 105.962 33.7715 107.102V107.106V107.13C33.7745 107.794 33.9135 108.456 34.1865 109.077C34.4655 109.702 34.8795 110.28 35.4245 110.757C36.3475 111.571 37.5125 111.982 38.6585 111.983H38.6625H38.6665H38.6695C39.3485 111.983 40.0225 111.844 40.6485 111.568C41.2775 111.293 41.8595 110.879 42.3395 110.341C43.1515 109.425 43.5665 108.269 43.5685 107.132L43.5715 107.122V107.118V107.114V107.11C43.5715 106.44 43.4295 105.768 43.1525 105.144C42.8795 104.519 42.4615 103.94 41.9205 103.463Z" fill="#1B1A43"/>
<path fill-rule="evenodd" clip-rule="evenodd" d="M32.1004 79.401C31.1744 78.485 29.9394 77.977 28.6374 77.974H28.6344C27.3354 77.976 26.0934 78.485 25.1704 79.401V79.402C24.2494 80.32 23.7334 81.549 23.7324 82.845V82.847C23.7344 84.139 24.2504 85.37 25.1704 86.288V86.29C26.0964 87.206 27.3354 87.713 28.6344 87.717H28.6374C29.9394 87.714 31.1774 87.206 32.1004 86.29L32.1034 86.288C33.0214 85.371 33.5354 84.14 33.5384 82.847V82.845C33.5354 81.552 33.0214 80.321 32.1034 79.402L32.1004 79.401Z" fill="#1B1A43"/>
<path fill-rule="evenodd" clip-rule="evenodd" d="M59.7719 99.928C59.7719 99.926 59.7729 99.926 59.7729 99.926C60.6679 98.922 61.1139 97.655 61.1199 96.41H61.1219V96.396V96.394V96.389V96.384C61.1219 95.644 60.9699 94.904 60.6629 94.214C60.3549 93.525 59.8919 92.886 59.2969 92.36C58.2799 91.47 56.9969 91.022 55.7369 91.022H55.7309C55.7259 91.022 55.7229 91.024 55.7179 91.024H55.7109C54.9729 91.026 54.2329 91.176 53.5489 91.479C52.8539 91.784 52.2109 92.241 51.6829 92.838C50.7889 93.846 50.3359 95.117 50.3359 96.368V96.373V96.377V96.384V96.401C50.3419 97.134 50.4899 97.864 50.7969 98.547C51.1039 99.236 51.5669 99.876 52.1639 100.402C53.1779 101.289 54.4589 101.736 55.7179 101.736H55.7229H55.7259C56.4709 101.736 57.2129 101.586 57.9109 101.282C58.6029 100.979 59.2449 100.52 59.7719 99.928Z" fill="#1B1A43"/>
<path fill-rule="evenodd" clip-rule="evenodd" d="M82.7694 115.024H82.7754H82.7804C83.6384 115.024 84.4964 114.836 85.2854 114.469C86.0744 114.098 86.7994 113.544 87.3734 112.832C88.2274 111.77 88.6534 110.478 88.6634 109.211V109.191C88.6634 109.191 88.6644 109.191 88.6644 109.189V109.183V109.177C88.6644 108.325 88.4754 107.474 88.1034 106.69C87.7304 105.906 87.1774 105.185 86.4584 104.615H86.4564C85.3824 103.76 84.0694 103.332 82.7904 103.332H82.7694V103.333C81.9154 103.334 81.0644 103.519 80.2754 103.887C79.4874 104.255 78.7614 104.81 78.1894 105.522C77.3294 106.589 76.8984 107.893 76.8984 109.167V109.188C76.9004 110.038 77.0864 110.883 77.4594 111.664C77.8274 112.451 78.3854 113.171 79.1034 113.742C80.1784 114.596 81.4884 115.022 82.7694 115.024Z" fill="#1B1A43"/>
<path fill-rule="evenodd" clip-rule="evenodd" d="M99.0039 126.314C100.098 127.081 101.388 127.459 102.644 127.461H102.648H102.654H102.661C103.663 127.459 104.65 127.225 105.555 126.772C106.455 126.318 107.267 125.633 107.88 124.764L107.883 124.762C107.883 124.76 107.885 124.757 107.888 124.754L107.898 124.734L107.901 124.732V124.731C108.664 123.642 109.037 122.375 109.039 121.136V121.133V121.129V121.128C109.037 120.13 108.804 119.148 108.349 118.252C107.891 117.358 107.203 116.548 106.328 115.941V115.94L106.323 115.937H106.321C105.222 115.17 103.937 114.791 102.678 114.791H102.657V114.792C101.662 114.793 100.677 115.025 99.7759 115.479C98.8759 115.934 98.0619 116.62 97.4509 117.49C96.6799 118.583 96.2969 119.86 96.2969 121.112V121.137C96.3009 122.129 96.5329 123.107 96.9849 123.994C97.4379 124.896 98.1269 125.704 99.0039 126.314Z" fill="#1B1A43"/>
<path fill-rule="evenodd" clip-rule="evenodd" d="M121.962 138.568H121.964H121.977H121.979H121.985C123.19 138.568 124.37 138.254 125.415 137.656C126.457 137.06 127.362 136.172 127.985 135.058L127.983 135.06C128.564 134.023 128.848 132.872 128.848 131.751V131.743C128.848 130.544 128.53 129.375 127.932 128.342C127.417 127.451 126.676 126.678 125.782 126.084H125.787C125.782 126.083 125.78 126.08 125.774 126.08C125.774 126.076 125.769 126.074 125.764 126.07V126.072C125.624 125.973 125.478 125.873 125.318 125.784C124.278 125.209 123.126 124.926 122 124.926H121.979V124.928C120.778 124.93 119.601 125.241 118.566 125.836C117.519 126.43 116.61 127.324 115.99 128.436C115.414 129.467 115.129 130.615 115.129 131.738V131.758H115.132C115.133 132.955 115.446 134.121 116.046 135.154C116.647 136.191 117.54 137.095 118.657 137.711C119.691 138.283 120.84 138.564 121.962 138.568Z" fill="#1B1A43"/>
<path fill-rule="evenodd" clip-rule="evenodd" d="M140.23 146.474H140.251H140.254H140.26C141.769 146.474 143.203 145.984 144.366 145.119C145.536 144.254 146.445 142.99 146.866 141.496L146.868 141.494V141.482L146.878 141.461V141.457C147.042 140.863 147.123 140.258 147.123 139.662V139.658V139.654C147.123 138.152 146.626 136.728 145.753 135.572L145.756 135.574C144.886 134.41 143.611 133.506 142.111 133.088C141.501 132.92 140.876 132.836 140.259 132.836C138.747 132.836 137.315 133.328 136.149 134.195C134.986 135.058 134.073 136.324 133.65 137.82C133.48 138.427 133.393 139.045 133.393 139.658C133.399 141.16 133.892 142.584 134.762 143.742V143.74C135.631 144.902 136.908 145.804 138.408 146.222C139.013 146.39 139.626 146.472 140.23 146.474Z" fill="#1B1A43"/>
<path fill-rule="evenodd" clip-rule="evenodd" d="M155.263 145.617C156.579 146.67 158.249 147.287 160.023 147.289C160.541 147.289 161.053 147.234 161.56 147.131H161.565C161.567 147.131 161.567 147.129 161.567 147.129H161.573C163.351 146.766 164.889 145.781 165.945 144.473H165.942C167.005 143.164 167.627 141.504 167.627 139.741C167.627 139.233 167.576 138.72 167.471 138.216V138.212C167.103 136.442 166.117 134.911 164.795 133.858C163.48 132.801 161.807 132.182 160.032 132.182C159.54 132.182 159.035 132.237 158.532 132.334H158.528C158.517 132.336 158.508 132.336 158.497 132.34H158.491H158.487C156.709 132.705 155.172 133.692 154.114 134.998C153.052 136.305 152.432 137.967 152.432 139.732C152.432 140.234 152.486 140.746 152.588 141.255V141.259C152.591 141.271 152.598 141.284 152.598 141.296L152.6 141.3V141.302C152.973 143.054 153.954 144.57 155.263 145.617Z" fill="#1B1A43"/>
<path fill-rule="evenodd" clip-rule="evenodd" d="M178.524 140.029H178.539C179.881 140.029 181.261 139.662 182.477 138.924L182.485 138.918H182.486V138.916C183.647 138.217 184.565 137.228 185.184 136.113C185.796 134.99 186.12 133.746 186.122 132.47V132.454H186.117C186.117 131.126 185.752 129.765 185.017 128.557C185.009 128.552 185.007 128.545 185.004 128.54H185.002C184.297 127.387 183.303 126.466 182.181 125.855C181.056 125.241 179.798 124.92 178.52 124.919H178.503C177.161 124.919 175.779 125.284 174.564 126.024H174.565H174.564L174.561 126.027C173.404 126.727 172.475 127.715 171.863 128.833C171.248 129.95 170.926 131.196 170.925 132.464H170.922V132.487C170.922 133.819 171.29 135.19 172.035 136.401V136.403V136.405C172.04 136.409 172.043 136.417 172.048 136.421L172.052 136.423C172.755 137.566 173.747 138.482 174.864 139.089C175.991 139.704 177.245 140.027 178.524 140.029Z" fill="#1B1A43"/>
<path fill-rule="evenodd" clip-rule="evenodd" d="M190.842 127.065C191.708 127.366 192.613 127.514 193.505 127.514C194.675 127.514 195.838 127.261 196.913 126.765C197.994 126.27 198.981 125.516 199.77 124.553L199.787 124.534L199.789 124.531C200.388 123.802 200.841 122.98 201.143 122.123C201.44 121.261 201.593 120.363 201.593 119.478C201.593 118.315 201.341 117.159 200.84 116.087C200.34 115.015 199.583 114.026 198.613 113.241C197.875 112.642 197.042 112.186 196.172 111.885C195.305 111.583 194.401 111.436 193.509 111.436C192.338 111.437 191.177 111.687 190.096 112.187C189.018 112.681 188.026 113.435 187.239 114.4C186.635 115.132 186.177 115.96 185.877 116.824C185.573 117.687 185.424 118.584 185.424 119.474C185.427 120.636 185.677 121.79 186.177 122.863C186.678 123.935 187.436 124.922 188.403 125.707L188.404 125.708H188.403C189.14 126.307 189.973 126.764 190.842 127.065Z" fill="#1B1A43"/>
<path fill-rule="evenodd" clip-rule="evenodd" d="M211.844 102.266C211.846 102.262 211.846 102.264 211.846 102.262V102.255V102.242C211.839 100.478 211.295 98.795 210.316 97.388C209.337 95.978 207.879 94.826 206.142 94.216C205.211 93.885 204.232 93.725 203.278 93.725H203.263C201.49 93.725 199.796 94.27 198.376 95.246C196.968 96.217 195.813 97.654 195.194 99.377L195.191 99.381C195.191 99.385 195.19 99.387 195.187 99.391C195.187 99.391 195.187 99.393 195.186 99.395C194.851 100.327 194.689 101.293 194.689 102.247V102.251C194.691 104.016 195.238 105.702 196.222 107.114C197.202 108.524 198.657 109.671 200.392 110.282L200.396 110.284C201.333 110.616 202.305 110.777 203.262 110.777H203.265C205.043 110.776 206.737 110.231 208.16 109.254C209.578 108.281 210.728 106.841 211.346 105.114C211.349 105.112 211.351 105.11 211.351 105.108V105.106C211.682 104.18 211.842 103.215 211.844 102.266Z" fill="#1B1A43"/>
<path fill-rule="evenodd" clip-rule="evenodd" d="M79.749 86.287C80.667 85.37 81.179 84.139 81.182 82.845V82.843C81.179 81.55 80.667 80.32 79.749 79.4L79.7449 79.398C78.8169 78.485 77.585 77.976 76.282 77.974H76.277C74.975 77.976 73.738 78.485 72.813 79.4V79.401C71.891 80.319 71.381 81.55 71.377 82.844V82.846C71.38 84.14 71.893 85.37 72.813 86.288V86.289C73.738 87.204 74.975 87.711 76.277 87.717H76.282C77.585 87.711 78.8229 87.204 79.7449 86.289L79.749 86.287Z" fill="#1B1A43"/>
<path fill-rule="evenodd" clip-rule="evenodd" d="M99.9509 98.719L99.9529 98.717C100.724 97.749 101.112 96.574 101.121 95.423L101.122 95.402C101.122 95.398 101.125 95.392 101.125 95.388V95.38V95.379C101.125 94.593 100.95 93.814 100.605 93.093C100.269 92.372 99.7529 91.711 99.0909 91.19C99.0899 91.189 99.0899 91.189 99.0879 91.188C98.1039 90.409 96.9079 90.021 95.7399 90.021H95.7249C94.9369 90.021 94.1509 90.193 93.4259 90.535C92.7009 90.875 92.0359 91.385 91.5079 92.043C90.7279 93.018 90.3379 94.206 90.3379 95.372V95.391C90.3379 96.175 90.5119 96.951 90.8539 97.669C91.1909 98.39 91.7079 99.052 92.3719 99.575C93.3529 100.352 94.5499 100.741 95.7159 100.741V100.742H95.7209H95.7279H95.7329C96.5219 100.742 97.3079 100.571 98.0349 100.228C98.7599 99.887 99.4239 99.375 99.9509 98.719Z" fill="#1B1A43"/>
<path fill-rule="evenodd" clip-rule="evenodd" d="M117.228 113.047H117.233H117.236C118.21 113.045 119.168 112.818 120.039 112.373C120.914 111.929 121.698 111.262 122.284 110.413C123.011 109.371 123.367 108.156 123.367 106.972V106.965V106.959C123.367 105.994 123.138 105.039 122.69 104.174C122.243 103.307 121.57 102.528 120.717 101.945C119.669 101.222 118.446 100.869 117.253 100.869H117.232C116.265 100.869 115.308 101.098 114.438 101.541C113.567 101.986 112.786 102.652 112.197 103.502L112.191 103.508V103.509C112.191 103.51 112.191 103.512 112.188 103.512C111.469 104.555 111.113 105.762 111.113 106.947V106.954V106.964V106.974C111.12 107.935 111.346 108.883 111.794 109.742C112.238 110.611 112.912 111.388 113.768 111.972V111.974C114.812 112.691 116.034 113.045 117.228 113.047Z" fill="#1B1A43"/>
<path fill-rule="evenodd" clip-rule="evenodd" d="M140.719 117.067V117.065V117.047C140.716 115.818 140.383 114.617 139.755 113.568C139.124 112.515 138.187 111.607 137.021 111.006C137.018 111.006 137.018 111.005 137.018 111.003C136.021 110.489 134.932 110.235 133.869 110.235H133.848C132.607 110.239 131.402 110.571 130.347 111.196C129.285 111.821 128.369 112.756 127.766 113.917V113.921C127.25 114.909 126.996 115.987 126.996 117.046V117.062C126.999 118.297 127.333 119.494 127.963 120.548C128.59 121.603 129.53 122.513 130.696 123.111C131.687 123.624 132.77 123.873 133.829 123.876V123.877L133.846 123.878H133.852H133.857H133.859C135.1 123.878 136.311 123.545 137.373 122.918C138.435 122.291 139.348 121.356 139.953 120.198V120.199C140.471 119.21 140.722 118.129 140.723 117.075L140.719 117.067Z" fill="#1B1A43"/>
<path fill-rule="evenodd" clip-rule="evenodd" d="M153.062 129.726L153.012 129.239L153.062 129.726C154.029 129.627 154.954 129.347 155.781 128.918C157.019 128.279 158.042 127.327 158.757 126.174C159.472 125.022 159.886 123.654 159.886 122.219V122.208C159.886 121.951 159.872 121.698 159.846 121.442L159.843 121.414L159.84 121.41C159.736 120.462 159.459 119.553 159.032 118.74C158.39 117.508 157.429 116.493 156.27 115.783C155.107 115.072 153.73 114.659 152.291 114.659C152.032 114.659 151.776 114.674 151.513 114.699H151.51H151.509L151.496 114.701C151.495 114.701 151.491 114.703 151.488 114.703C151.48 114.703 151.472 114.705 151.467 114.706V114.705L151.459 114.706C150.513 114.807 149.604 115.082 148.791 115.504C147.554 116.141 146.53 117.095 145.815 118.25C145.096 119.398 144.686 120.771 144.686 122.205C144.686 122.452 144.701 122.707 144.725 122.963H144.724V122.967C144.725 122.969 144.724 122.971 144.724 122.971L144.725 122.985V122.987C144.725 122.99 144.728 122.991 144.728 122.993V122.996C144.831 123.947 145.108 124.862 145.539 125.682C146.182 126.914 147.138 127.928 148.3 128.639C149.456 129.35 150.836 129.762 152.276 129.762H152.281H152.284C152.544 129.762 152.804 129.746 153.057 129.723H153.062V129.726Z" fill="#1B1A43"/>
<path fill-rule="evenodd" clip-rule="evenodd" d="M177.167 119.137H177.165C177.73 118.057 178.019 116.862 178.019 115.655V115.64V115.639C178.019 114.193 177.586 112.705 176.716 111.426L176.714 111.422C176.711 111.422 176.71 111.419 176.71 111.418C175.981 110.355 175.01 109.516 173.924 108.955C172.838 108.393 171.637 108.105 170.423 108.105H170.407C168.952 108.105 167.455 108.535 166.171 109.4C165.097 110.119 164.245 111.093 163.684 112.173C163.122 113.255 162.83 114.444 162.83 115.653V115.672C162.83 117.118 163.261 118.609 164.133 119.884C164.857 120.95 165.836 121.794 166.924 122.357C168.011 122.918 169.211 123.204 170.427 123.204H170.445C171.897 123.204 173.395 122.773 174.682 121.91C175.75 121.194 176.602 120.219 177.167 119.137Z" fill="#1B1A43"/>
<path fill-rule="evenodd" clip-rule="evenodd" d="M183.338 109.436H183.346C184.793 109.434 186.204 109.051 187.445 108.328C188.686 107.604 189.766 106.52 190.482 105.179C191.124 103.994 191.434 102.682 191.434 101.413V101.403V101.399C191.434 99.96 191.05 98.558 190.319 97.323C189.59 96.089 188.502 95.018 187.149 94.304C185.958 93.67 184.638 93.358 183.359 93.358H183.346C181.899 93.36 180.492 93.744 179.249 94.467C178.01 95.19 176.929 96.274 176.211 97.617C175.572 98.802 175.26 100.109 175.26 101.383V101.395V101.403V101.411C175.265 102.845 175.65 104.241 176.376 105.471C177.102 106.706 178.19 107.778 179.54 108.492C180.735 109.125 182.056 109.436 183.338 109.436Z" fill="#1B1A43"/>
<path fill-rule="evenodd" clip-rule="evenodd" d="M194.705 87.269C195.494 86.11 195.983 84.707 196.066 83.231C196.082 83.103 196.084 82.974 196.084 82.836V82.815V82.81V82.796V82.795L196.087 82.778V82.771V82.767V82.762V82.758L196.084 82.729V82.725C196.084 82.724 196.083 82.723 196.083 82.721C196.075 81.64 195.85 80.587 195.441 79.638C194.824 78.191 193.805 76.977 192.517 76.112C191.253 75.262 189.701 74.756 188.076 74.742C188.07 74.742 188.07 74.741 188.07 74.741C188.07 74.741 188.046 74.74 187.999 74.74L187.997 74.741H187.982V74.746H187.98V74.741H187.963H187.955H187.949C187.847 74.741 187.691 74.746 187.462 74.768V74.767C186.544 74.826 185.652 75.033 184.836 75.377C183.381 75.994 182.156 77.006 181.291 78.283C180.428 79.547 179.918 81.104 179.91 82.733V82.734V82.739V82.772V82.776V82.789V82.791C179.91 82.881 179.91 83.084 179.934 83.334V83.34V83.342C179.996 84.237 180.205 85.115 180.544 85.915C181.162 87.362 182.183 88.575 183.467 89.44C184.646 90.232 186.079 90.722 187.585 90.798V90.799C187.763 90.81 187.894 90.813 187.972 90.813H187.979H187.996H188.005H188.009H188.011H188.013H188.056H188.061C189.142 90.804 190.203 90.581 191.159 90.177C192.616 89.562 193.834 88.55 194.705 87.269Z" fill="#1B1A43"/>
<path fill-rule="evenodd" clip-rule="evenodd" d="M115.938 78.711L115.935 78.71C114.824 77.61 113.344 77.002 111.779 76.997H111.777C110.214 77.002 108.731 77.609 107.62 78.71V78.711C107.62 78.712 107.62 78.712 107.617 78.712C106.513 79.815 105.899 81.285 105.896 82.841V82.844C105.901 84.397 106.513 85.871 107.62 86.973V86.974C108.731 88.073 110.212 88.681 111.777 88.684H111.779C113.342 88.68 114.824 88.075 115.935 86.974L115.938 86.973V86.971C117.044 85.866 117.655 84.394 117.662 82.844V82.841C117.653 81.286 117.044 79.817 115.938 78.711C115.938 78.713 115.938 78.713 115.938 78.711Z" fill="#1B1A43"/>
<path fill-rule="evenodd" clip-rule="evenodd" d="M213.725 87.772C214.654 86.419 215.199 84.752 215.203 83.008V82.996V82.993V82.974L215.199 82.877V82.852V82.849V82.844V82.843H215.196C215.196 82.838 215.193 82.837 215.193 82.833C215.172 81.73 214.941 80.652 214.524 79.675C213.874 78.139 212.795 76.851 211.431 75.931C210.147 75.065 208.577 74.537 206.93 74.48H206.926V74.478C206.911 74.478 206.812 74.47 206.636 74.469H206.631H206.621H206.613C205.447 74.469 204.308 74.708 203.282 75.14C201.735 75.791 200.438 76.862 199.517 78.218C198.645 79.491 198.12 81.042 198.052 82.675H198.049C198.049 82.687 198.041 82.798 198.041 82.977V82.982V82.995V83C198.041 84.158 198.279 85.292 198.717 86.31C199.371 87.848 200.446 89.137 201.814 90.054C203.173 90.972 204.852 91.518 206.604 91.518H206.618H206.621H206.629H206.648H206.774C206.782 91.518 206.785 91.512 206.794 91.51C207.901 91.489 208.982 91.261 209.962 90.847C211.504 90.2 212.802 89.127 213.725 87.772Z" fill="#1B1A43"/>
<path fill-rule="evenodd" clip-rule="evenodd" d="M233.646 72.367L233.643 72.363V72.358C233.503 71.234 233.147 70.158 232.628 69.2C231.847 67.762 230.704 66.583 229.334 65.76C227.97 64.936 226.346 64.46 224.652 64.46H224.646C224.286 64.46 223.912 64.484 223.526 64.531H223.525H223.521H223.518L223.507 64.532C223.504 64.532 223.501 64.535 223.499 64.535V64.532L223.496 64.535C222.376 64.676 221.299 65.026 220.343 65.538C218.896 66.313 217.711 67.449 216.884 68.812C216.054 70.169 215.578 71.779 215.576 73.461V73.462L215.578 73.467H215.576C215.576 73.836 215.598 74.213 215.645 74.592V74.596L215.646 74.601V74.603C215.646 74.603 215.649 74.604 215.649 74.605C215.792 75.722 216.139 76.79 216.657 77.742C217.437 79.182 218.581 80.358 219.952 81.181C221.32 82.006 222.94 82.481 224.636 82.481C225.013 82.481 225.385 82.458 225.75 82.412V82.413L225.759 82.412H225.768C226.894 82.272 227.98 81.921 228.94 81.405C230.39 80.628 231.577 79.491 232.402 78.129C233.228 76.77 233.709 75.158 233.709 73.475V73.467C233.711 73.1 233.688 72.73 233.646 72.367Z" fill="#1B1A43"/>
<path fill-rule="evenodd" clip-rule="evenodd" d="M216.662 46.89L216.658 46.891C216.658 46.891 216.658 46.892 216.654 46.892C215.001 47.547 213.621 48.694 212.694 50.08C211.767 51.466 211.257 53.097 211.256 54.799V54.818C211.256 55.865 211.456 56.942 211.86 57.958H211.863C211.865 57.962 211.869 57.968 211.869 57.973L211.872 57.977C212.533 59.621 213.684 60.984 215.076 61.9C216.474 62.827 218.123 63.333 219.836 63.335H219.841C220.893 63.335 221.969 63.138 222.986 62.737L223.007 62.733C224.669 62.078 226.049 60.927 226.975 59.536C227.902 58.147 228.413 56.515 228.413 54.807V54.8V54.791C228.41 53.747 228.215 52.675 227.809 51.665V51.661C227.809 51.661 227.807 51.66 227.807 51.656V51.654V51.655C227.148 50.003 225.992 48.636 224.595 47.713C223.199 46.791 221.557 46.283 219.84 46.282H219.829C218.773 46.282 217.692 46.479 216.671 46.884L216.662 46.89Z" fill="#1B1A43"/>
<path fill-rule="evenodd" clip-rule="evenodd" d="M202.377 37.947C202.377 38.769 202.504 39.596 202.762 40.403C203.021 41.205 203.414 41.984 203.936 42.688V42.689V42.69C203.936 42.691 203.939 42.691 203.939 42.691C203.945 42.698 203.955 42.705 203.96 42.712V42.713C204.734 43.764 205.753 44.593 206.863 45.142C207.995 45.698 209.223 45.983 210.467 45.983C211.293 45.983 212.127 45.857 212.936 45.6C213.745 45.343 214.523 44.951 215.233 44.437C216.306 43.66 217.149 42.644 217.71 41.522C218.27 40.403 218.556 39.178 218.556 37.942C218.556 37.124 218.428 36.296 218.171 35.49C217.911 34.687 217.519 33.909 217.001 33.204C216.22 32.14 215.194 31.3 214.065 30.746C212.939 30.19 211.711 29.904 210.463 29.904C209.64 29.904 208.805 30.031 207.999 30.288C207.19 30.545 206.414 30.934 205.707 31.447C205.706 31.448 205.702 31.449 205.698 31.451C204.626 32.226 203.783 33.244 203.225 34.366C202.664 35.489 202.378 36.712 202.377 37.947Z" fill="#1B1A43"/>
<path fill-rule="evenodd" clip-rule="evenodd" d="M192.332 29.755C193.029 30.326 193.815 30.762 194.641 31.049C195.461 31.338 196.315 31.476 197.162 31.476C198.252 31.476 199.342 31.244 200.345 30.785C201.357 30.325 202.287 29.625 203.025 28.728C203.601 28.036 204.043 27.251 204.334 26.435C204.622 25.621 204.764 24.77 204.764 23.93C204.764 22.844 204.532 21.765 204.066 20.761C203.603 19.76 202.9 18.836 201.998 18.1C201.306 17.529 200.518 17.093 199.691 16.804C198.872 16.515 198.012 16.375 197.17 16.375C196.078 16.375 194.99 16.608 193.983 17.069C192.974 17.529 192.045 18.229 191.303 19.124C190.727 19.816 190.289 20.599 190 21.417C189.709 22.232 189.566 23.082 189.566 23.926C189.566 25.008 189.8 26.085 190.266 27.09C190.726 28.091 191.431 29.017 192.332 29.755Z" fill="#1B1A43"/>
<path fill-rule="evenodd" clip-rule="evenodd" d="M174.742 17.373C175.438 18.491 176.482 19.441 177.763 20.032C178.72 20.476 179.753 20.696 180.76 20.696H180.763H180.768H180.77C182.112 20.696 183.41 20.321 184.536 19.623C185.659 18.93 186.613 17.894 187.21 16.623C187.66 15.669 187.879 14.642 187.879 13.64V13.631C187.879 12.298 187.5 11.007 186.801 9.89099C186.111 8.78399 185.078 7.84399 183.818 7.25099L183.792 7.23799L183.786 7.23399C182.823 6.78899 181.792 6.56799 180.782 6.56799H180.768C179.43 6.57199 178.133 6.94399 177.006 7.63999C175.885 8.33499 174.928 9.37199 174.33 10.642C173.885 11.594 173.664 12.621 173.664 13.624V13.643C173.668 14.971 174.044 16.259 174.742 17.373Z" fill="#1B1A43"/>
<path fill-rule="evenodd" clip-rule="evenodd" d="M156.626 12.394C157.68 13.67 159.203 14.612 160.959 14.934L160.963 14.935C161.41 15.015 161.859 15.056 162.305 15.056C164.057 15.056 165.696 14.44 166.977 13.389L166.976 13.39C168.258 12.344 169.206 10.825 169.531 9.08002C169.615 8.63502 169.656 8.18702 169.656 7.74602C169.656 6.00902 169.036 4.37702 167.978 3.10302V3.10502C166.925 1.82602 165.398 0.886017 163.642 0.564017C163.194 0.483017 162.746 0.442017 162.301 0.442017C160.554 0.442017 158.91 1.06002 157.629 2.10902H157.631C156.348 3.15302 155.401 4.67102 155.077 6.42002C154.989 6.86002 154.951 7.30802 154.951 7.75302C154.951 9.49002 155.573 11.122 156.628 12.395L156.626 12.394Z" fill="#1B1A43"/>
<path fill-rule="evenodd" clip-rule="evenodd" d="M136.163 7.702V7.706V7.709V7.71V7.715L136.166 7.716C136.388 9.416 137.25 10.92 138.463 11.963L138.46 11.962C139.67 13.01 141.261 13.64 142.964 13.64C143.263 13.64 143.56 13.619 143.856 13.581H143.861H143.868C145.581 13.358 147.093 12.502 148.142 11.298H148.14C149.194 10.096 149.828 8.514 149.828 6.823C149.828 6.527 149.807 6.229 149.768 5.935V5.934V5.933C149.542 4.228 148.684 2.723 147.47 1.677H147.471C146.26 0.629 144.671 0 142.968 0C142.674 0 142.374 0.02 142.076 0.06H142.07C142.057 0.061 142.049 0.064 142.039 0.066V0.065L142.035 0.066H142.032C140.331 0.296 138.833 1.146 137.79 2.342C136.734 3.544 136.102 5.126 136.102 6.817C136.102 7.102 136.122 7.398 136.162 7.694C136.163 7.696 136.163 7.7 136.163 7.702Z" fill="#1B1A43"/>
<path fill-rule="evenodd" clip-rule="evenodd" d="M118.557 14.874C119.072 16.049 119.927 17.012 120.943 17.662C121.965 18.311 123.159 18.666 124.39 18.669C125.245 18.669 126.113 18.495 126.931 18.143L126.952 18.13H126.955L126.952 18.129C128.133 17.615 129.097 16.771 129.75 15.76C130.399 14.745 130.76 13.559 130.76 12.334V12.331L130.758 12.308C130.755 11.47 130.582 10.614 130.23 9.80901C129.715 8.62701 128.858 7.66101 127.834 7.01001C126.813 6.35801 125.626 6.00401 124.393 6.00301V6.00201H124.377C123.543 6.00201 122.691 6.17101 121.885 6.51501H121.882V6.51601C121.869 6.52101 121.859 6.52501 121.844 6.53201H121.842C120.654 7.04601 119.684 7.89501 119.029 8.91101C118.379 9.91801 118.023 11.096 118.015 12.313H118.014V12.342C118.014 13.189 118.19 14.051 118.545 14.865C118.552 14.868 118.556 14.87 118.557 14.874Z" fill="#1B1A43"/>
<path fill-rule="evenodd" clip-rule="evenodd" d="M99.2653 24.58L99.2673 24.581C99.2753 24.59 99.2803 24.601 99.2883 24.613V24.614C99.8813 25.589 100.714 26.362 101.659 26.881C102.603 27.401 103.662 27.665 104.736 27.665H104.748C105.872 27.665 107.019 27.365 108.038 26.747L108.042 26.746C109.02 26.157 109.797 25.328 110.315 24.39C110.836 23.449 111.106 22.401 111.108 21.331V21.321V21.315C111.103 20.202 110.801 19.063 110.182 18.05V18.049C110.18 18.047 110.18 18.044 110.174 18.042L110.171 18.034H110.168C109.576 17.067 108.749 16.301 107.809 15.787C106.868 15.272 105.81 15.001 104.738 15.001H104.724C103.6 15.001 102.453 15.301 101.431 15.918C100.452 16.506 99.6753 17.335 99.1543 18.276C98.6353 19.211 98.3683 20.255 98.3633 21.323V21.345C98.3593 22.446 98.6623 23.575 99.2653 24.58Z" fill="#1B1A43"/>
<path fill-rule="evenodd" clip-rule="evenodd" d="M81.9971 37.291C82.8151 37.699 83.7211 37.905 84.6291 37.905H84.6391C85.8281 37.905 87.0411 37.54 88.0711 36.799C88.8601 36.233 89.4781 35.494 89.8871 34.675C90.2991 33.86 90.5081 32.963 90.5091 32.059V32.05V32.044H90.5081C90.5061 30.865 90.1391 29.658 89.3941 28.636L89.3771 28.619C88.8111 27.845 88.0721 27.237 87.2571 26.828C86.4361 26.421 85.5351 26.214 84.6251 26.214H84.6121C83.4241 26.214 82.2111 26.58 81.1781 27.322C80.3901 27.887 79.7751 28.625 79.3641 29.446C78.9571 30.257 78.7481 31.153 78.7461 32.053V32.071C78.7461 33.252 79.1141 34.46 79.8591 35.486C80.4291 36.268 81.1721 36.883 81.9971 37.291Z" fill="#1B1A43"/>
<path fill-rule="evenodd" clip-rule="evenodd" d="M65.7967 38.549C65.0117 38.183 64.1607 38.002 63.3107 38.002H63.2967C62.0077 38.002 60.6827 38.436 59.6057 39.31L59.6077 39.309C58.8967 39.88 58.3467 40.599 57.9787 41.379C57.6177 42.155 57.4317 42.998 57.4297 43.842V43.86C57.4297 45.146 57.8687 46.46 58.7437 47.533C59.3157 48.239 60.0417 48.787 60.8277 49.148C61.6107 49.512 62.4607 49.697 63.3097 49.697H63.3197C64.6167 49.697 65.9367 49.259 67.0127 48.39C67.7227 47.819 68.2767 47.103 68.6417 46.32C69.0047 45.542 69.1907 44.697 69.1907 43.85V43.84C69.1907 42.553 68.7527 41.24 67.8787 40.17C67.3037 39.461 66.5837 38.913 65.7967 38.549Z" fill="#1B1A43"/>
<path fill-rule="evenodd" clip-rule="evenodd" d="M36.6935 63.259C37.3245 63.535 37.9985 63.672 38.6725 63.672H38.6805C39.8305 63.672 40.9935 63.263 41.9195 62.449C42.4635 61.972 42.8795 61.392 43.1585 60.768C43.4295 60.142 43.5735 59.473 43.5735 58.802V58.79C43.5695 57.649 43.1585 56.492 42.3405 55.574C41.8605 55.033 41.2785 54.619 40.6495 54.345C40.0225 54.068 39.3495 53.93 38.6755 53.929H38.6605C37.5145 53.929 36.3485 54.337 35.4225 55.153C34.8805 55.63 34.4635 56.21 34.1845 56.835C33.9135 57.457 33.7705 58.121 33.7705 58.789H33.7695V58.81C33.7695 59.951 34.1815 61.108 35.0005 62.03C35.4805 62.568 36.0625 62.984 36.6935 63.259Z" fill="#1B1A43"/>
<path fill-rule="evenodd" clip-rule="evenodd" d="M53.5489 74.432C54.2389 74.737 54.9859 74.89 55.7309 74.89H55.7429C56.9999 74.889 58.2809 74.441 59.2969 73.551C59.8979 73.029 60.3579 72.389 60.6609 71.697C60.9699 71.01 61.1199 70.27 61.1199 69.53V69.52C61.1199 68.27 60.6709 66.998 59.7739 65.988C59.2489 65.392 58.6019 64.935 57.9109 64.63C57.2159 64.325 56.4729 64.173 55.7259 64.173H55.7169C54.4829 64.173 53.2269 64.611 52.2209 65.469C52.2189 65.47 52.2159 65.47 52.2159 65.47C52.1969 65.487 52.1789 65.495 52.1619 65.511C52.1619 65.511 52.1599 65.512 52.1599 65.514C51.5599 66.038 51.0989 66.676 50.7969 67.363C50.4909 68.048 50.3379 68.784 50.3379 69.522V69.54C50.3379 70.79 50.7889 72.063 51.6839 73.073C52.2109 73.669 52.8539 74.125 53.5489 74.432Z" fill="#1B1A43"/>
<path fill-rule="evenodd" clip-rule="evenodd" d="M78.1675 60.355H78.1695C78.1775 60.366 78.1845 60.379 78.1905 60.391C78.1905 60.392 78.1945 60.392 78.1965 60.394C78.7685 61.105 79.4895 61.658 80.2795 62.027C81.0665 62.393 81.9255 62.581 82.7825 62.581H82.7945C84.0755 62.58 85.3845 62.152 86.4605 61.298L86.4875 61.27C87.1905 60.702 87.7375 59.995 88.1025 59.221C88.4735 58.436 88.6625 57.588 88.6625 56.735V56.724V56.722H88.6615C88.6615 55.448 88.2295 54.149 87.3725 53.083C86.7995 52.367 86.0715 51.812 85.2805 51.446C84.4925 51.078 83.6395 50.891 82.7765 50.891H82.7665C81.4865 50.891 80.1745 51.319 79.1005 52.176L79.1015 52.175C78.3815 52.746 77.8255 53.465 77.4555 54.249C77.0855 55.033 76.8985 55.881 76.8965 56.731V56.752C76.8965 58.01 77.3165 59.291 78.1605 60.351C78.1665 60.351 78.1665 60.352 78.1675 60.355Z" fill="#1B1A43"/>
<path fill-rule="evenodd" clip-rule="evenodd" d="M97.4441 48.421C98.0581 49.29 98.8711 49.975 99.7691 50.429C100.669 50.885 101.66 51.118 102.664 51.118H102.674C103.933 51.118 105.22 50.738 106.319 49.971C107.193 49.359 107.881 48.553 108.34 47.657C108.799 46.762 109.032 45.779 109.032 44.783V44.774V44.77H109.03C109.03 43.521 108.646 42.241 107.878 41.149V41.148C107.875 41.145 107.873 41.143 107.87 41.139L107.868 41.136V41.135C107.255 40.271 106.448 39.592 105.551 39.141C104.65 38.687 103.661 38.452 102.655 38.452H102.645C101.412 38.452 100.151 38.825 99.0641 39.562H99.0611H99.0601V39.564C99.0391 39.578 99.0161 39.587 98.9981 39.601C98.9951 39.602 98.9951 39.604 98.9941 39.606C98.1221 40.214 97.4341 41.018 96.9751 41.913C96.5191 42.806 96.2871 43.788 96.2871 44.778V44.798C96.2871 46.047 96.6671 47.329 97.4391 48.419C97.4421 48.42 97.4441 48.42 97.4441 48.421Z" fill="#1B1A43"/>
<path fill-rule="evenodd" clip-rule="evenodd" d="M115.984 37.476V37.481H115.989C115.994 37.491 116.002 37.499 116.008 37.509V37.51C116.01 37.512 116.012 37.512 116.013 37.513C116.633 38.606 117.531 39.485 118.561 40.074C119.604 40.67 120.783 40.986 121.988 40.986H122C123.125 40.986 124.275 40.701 125.316 40.128C125.477 40.039 125.627 39.941 125.761 39.84V39.843C125.767 39.838 125.773 39.832 125.777 39.83C125.78 39.83 125.781 39.829 125.783 39.827V39.826C126.677 39.236 127.42 38.46 127.932 37.57C128.535 36.535 128.848 35.362 128.848 34.162V34.155V34.144C128.845 33.029 128.563 31.884 127.983 30.852C127.367 29.74 126.458 28.852 125.414 28.253C124.373 27.658 123.194 27.344 121.992 27.344V27.343H121.975C120.851 27.343 119.704 27.626 118.66 28.2C118.66 28.2 118.66 28.2 118.656 28.201C118.642 28.207 118.635 28.218 118.623 28.223L118.622 28.221H118.621C118.619 28.223 118.617 28.226 118.615 28.227C117.515 28.841 116.633 29.733 116.043 30.758C115.443 31.79 115.13 32.959 115.127 34.154V34.174C115.124 35.294 115.408 36.44 115.984 37.476Z" fill="#1B1A43"/>
<path fill-rule="evenodd" clip-rule="evenodd" d="M133.645 28.057V28.062L133.646 28.059C133.649 28.074 133.65 28.085 133.654 28.097L133.655 28.098C134.075 29.594 134.986 30.856 136.152 31.717C137.315 32.583 138.752 33.077 140.262 33.077C140.872 33.077 141.491 32.994 142.094 32.825H142.097L142.111 32.821C143.616 32.406 144.887 31.501 145.757 30.339C146.627 29.183 147.124 27.76 147.124 26.258V26.253L147.121 26.221C147.116 25.62 147.033 25.013 146.865 24.42L146.85 24.369H146.847C146.422 22.895 145.519 21.649 144.365 20.794H144.368C143.205 19.928 141.77 19.436 140.262 19.436C139.658 19.436 139.054 19.518 138.455 19.68H138.446H138.441V19.681C138.429 19.683 138.42 19.684 138.411 19.687H138.41C138.41 19.688 138.408 19.688 138.408 19.688H138.403C136.902 20.105 135.632 21.009 134.76 22.17V22.169C133.891 23.326 133.395 24.752 133.395 26.254C133.395 26.849 133.476 27.455 133.643 28.052C133.645 28.056 133.645 28.056 133.645 28.057Z" fill="#1B1A43"/>
<path fill-rule="evenodd" clip-rule="evenodd" d="M154.111 30.913C155.168 32.225 156.711 33.209 158.492 33.572C159.004 33.676 159.519 33.729 160.028 33.729C161.803 33.728 163.477 33.115 164.794 32.058V32.059C166.115 31.007 167.1 29.476 167.469 27.706C167.573 27.197 167.625 26.682 167.625 26.176C167.625 24.409 167.006 22.75 165.94 21.441L165.941 21.442C164.884 20.128 163.345 19.145 161.56 18.783C161.051 18.677 160.537 18.626 160.024 18.626C158.251 18.627 156.58 19.242 155.262 20.298V20.296C153.943 21.348 152.954 22.879 152.588 24.65C152.484 25.157 152.432 25.671 152.432 26.18C152.434 27.945 153.049 29.604 154.111 30.913Z" fill="#1B1A43"/>
<path fill-rule="evenodd" clip-rule="evenodd" d="M171.866 37.072C172.478 38.189 173.399 39.175 174.554 39.875C174.556 39.875 174.556 39.876 174.556 39.878H174.559C174.561 39.878 174.565 39.88 174.567 39.884C175.783 40.62 177.17 40.988 178.509 40.988H178.511H178.516H178.523C179.803 40.988 181.057 40.669 182.183 40.054C183.306 39.442 184.303 38.523 185.005 37.368L185.007 37.366V37.368C185.75 36.16 186.113 34.79 186.118 33.46V33.449V33.442V33.438C186.118 32.165 185.796 30.917 185.18 29.8C184.566 28.679 183.637 27.691 182.476 26.987C181.258 26.251 179.876 25.883 178.536 25.883H178.521C177.24 25.884 175.986 26.203 174.866 26.815C173.75 27.419 172.758 28.336 172.053 29.481V29.482H172.051V29.483C172.046 29.488 172.04 29.493 172.036 29.498C172.036 29.499 172.035 29.499 172.035 29.501C171.293 30.71 170.924 32.083 170.924 33.418V33.436H170.927C170.929 34.711 171.251 35.956 171.866 37.072Z" fill="#1B1A43"/>
<path fill-rule="evenodd" clip-rule="evenodd" d="M186.175 43.048C185.673 44.12 185.422 45.274 185.422 46.438C185.422 47.326 185.568 48.221 185.872 49.084C186.175 49.948 186.638 50.774 187.238 51.511C188.024 52.473 189.016 53.226 190.094 53.725C191.175 54.224 192.336 54.474 193.507 54.474C194.401 54.474 195.303 54.327 196.17 54.021C197.035 53.726 197.864 53.267 198.598 52.672H198.601L198.615 52.666C199.58 51.882 200.337 50.895 200.841 49.822C201.339 48.75 201.591 47.595 201.594 46.433C201.594 45.544 201.444 44.65 201.141 43.788C200.841 42.924 200.378 42.095 199.777 41.36C199.773 41.355 199.768 41.35 199.762 41.345L199.76 41.344V41.343C198.973 40.387 197.987 39.64 196.913 39.147C195.835 38.65 194.675 38.399 193.505 38.398C192.61 38.398 191.708 38.545 190.842 38.848C189.973 39.148 189.14 39.607 188.397 40.207C187.432 40.989 186.673 41.976 186.175 43.048Z" fill="#1B1A43"/>
<path fill-rule="evenodd" clip-rule="evenodd" d="M211.35 60.808C210.733 59.079 209.579 57.634 208.162 56.656C206.741 55.679 205.05 55.139 203.273 55.136H203.262C202.305 55.136 201.328 55.298 200.393 55.629C198.657 56.239 197.204 57.389 196.221 58.801C195.243 60.202 194.7 61.883 194.691 63.641V63.645V63.66V63.665C194.691 64.607 194.853 65.573 195.184 66.498H195.186C195.188 66.504 195.188 66.511 195.19 66.517C195.19 66.518 195.19 66.518 195.192 66.518V66.522C195.192 66.523 195.193 66.523 195.193 66.523C195.804 68.246 196.964 69.691 198.381 70.665H198.378C199.797 71.643 201.494 72.185 203.27 72.185C204.231 72.185 205.208 72.022 206.138 71.694L206.144 71.693C207.882 71.081 209.335 69.931 210.318 68.521C211.3 67.112 211.847 65.427 211.847 63.659V63.64C211.841 62.695 211.678 61.731 211.353 60.813V60.812L211.35 60.808Z" fill="#1B1A43"/>
<path fill-rule="evenodd" clip-rule="evenodd" d="M90.3418 70.524V70.546C90.3418 71.707 90.7318 72.895 91.5178 73.873C92.0428 74.531 92.7058 75.04 93.4328 75.383C94.1608 75.721 94.9438 75.893 95.7338 75.894H95.7448H95.7458C96.9148 75.893 98.1088 75.507 99.0938 74.73C99.7548 74.204 100.27 73.543 100.611 72.82C100.954 72.1 101.127 71.319 101.127 70.532V70.526V70.521C101.125 69.365 100.735 68.185 99.9648 67.212L99.9548 67.198C99.4258 66.539 98.7618 66.028 98.0358 65.687C97.3108 65.35 96.5258 65.177 95.7418 65.177H95.7248C94.5548 65.177 93.3598 65.564 92.3748 66.344V66.343C91.7138 66.868 91.1948 67.528 90.8558 68.249C90.5168 68.964 90.3418 69.742 90.3418 70.524Z" fill="#1B1A43"/>
<path fill-rule="evenodd" clip-rule="evenodd" d="M112.188 62.401L112.191 62.402L112.193 62.408C112.783 63.258 113.566 63.927 114.437 64.369C115.308 64.813 116.27 65.042 117.242 65.042H117.252C118.443 65.042 119.663 64.687 120.709 63.972L120.711 63.971C120.711 63.97 120.717 63.97 120.719 63.967C121.571 63.381 122.242 62.604 122.693 61.737C123.138 60.871 123.369 59.916 123.372 58.952V58.942V58.937C123.369 57.753 123.013 56.54 122.289 55.499C121.701 54.648 120.916 53.98 120.041 53.537C119.172 53.092 118.212 52.864 117.239 52.864H117.228C116.037 52.864 114.813 53.219 113.763 53.94C112.91 54.524 112.237 55.302 111.793 56.169C111.345 57.033 111.115 57.982 111.115 58.945V58.966C111.115 60.147 111.469 61.355 112.186 62.394C112.188 62.396 112.188 62.4 112.188 62.401Z" fill="#1B1A43"/>
<path fill-rule="evenodd" clip-rule="evenodd" d="M140.72 48.846V48.821H140.717C140.715 47.772 140.463 46.696 139.948 45.717C139.344 44.556 138.43 43.62 137.368 42.996C136.306 42.369 135.097 42.034 133.855 42.034H133.843C132.783 42.034 131.697 42.286 130.699 42.8C130.699 42.803 130.699 42.801 130.697 42.803C130.693 42.803 130.693 42.803 130.692 42.804C130.675 42.814 130.667 42.823 130.648 42.829H130.647C130.644 42.829 130.644 42.83 130.643 42.832C129.502 43.432 128.579 44.325 127.955 45.368V45.367C127.325 46.416 126.991 47.617 126.988 48.849V48.868C126.988 49.924 127.241 51.009 127.759 51.998C128.363 53.155 129.278 54.091 130.339 54.717C131.4 55.342 132.61 55.675 133.854 55.677H133.86H133.862V55.676C134.926 55.676 136.014 55.425 137.008 54.912H137.011C138.175 54.31 139.119 53.403 139.748 52.346C140.378 51.293 140.711 50.093 140.711 48.856L140.72 48.846Z" fill="#1B1A43"/>
<path fill-rule="evenodd" clip-rule="evenodd" d="M145.54 40.227C145.113 41.037 144.836 41.946 144.732 42.895L144.729 42.896H144.732C144.732 42.898 144.726 42.901 144.726 42.903V42.907C144.726 42.907 144.729 42.91 144.726 42.911V42.924C144.724 42.942 144.726 42.958 144.724 42.974C144.703 43.212 144.686 43.45 144.686 43.689V43.699V43.703V43.705C144.686 45.619 145.418 47.406 146.629 48.743C147.234 49.413 147.963 49.98 148.789 50.407C149.615 50.833 150.543 51.113 151.507 51.212C151.769 51.239 152.028 51.253 152.285 51.253C154.215 51.253 156.009 50.524 157.352 49.321C158.029 48.719 158.594 47.995 159.027 47.175C159.458 46.351 159.738 45.43 159.838 44.475C159.86 44.212 159.878 43.954 159.878 43.698C159.878 41.784 159.145 39.996 157.932 38.659C157.328 37.988 156.599 37.42 155.774 36.995C154.946 36.568 154.02 36.287 153.056 36.189C152.799 36.163 152.537 36.149 152.281 36.149C150.351 36.149 148.554 36.878 147.21 38.081C146.537 38.679 145.967 39.403 145.54 40.227Z" fill="#1B1A43"/>
<path fill-rule="evenodd" clip-rule="evenodd" d="M164.132 46.025C164.132 46.029 164.13 46.03 164.13 46.03C164.125 46.038 164.121 46.047 164.114 46.054V46.055C163.257 47.328 162.83 48.801 162.83 50.238V50.258C162.83 51.464 163.122 52.654 163.684 53.734C164.246 54.814 165.09 55.779 166.162 56.497V56.499C166.166 56.5 166.166 56.499 166.166 56.5C166.17 56.501 166.171 56.505 166.173 56.506C167.457 57.372 168.956 57.8 170.411 57.8H170.42H170.428C171.641 57.8 172.84 57.511 173.929 56.949C175.018 56.391 175.996 55.546 176.72 54.479V54.478C176.723 54.476 176.726 54.473 176.726 54.471L176.728 54.47V54.469C177.593 53.197 178.023 51.718 178.023 50.277V50.272V50.267V50.266V50.254C178.023 49.045 177.733 47.853 177.169 46.768C176.606 45.687 175.755 44.713 174.682 43.993H174.679C173.396 43.13 171.899 42.7 170.444 42.7H170.424C169.21 42.7 168.013 42.992 166.921 43.553C165.834 44.114 164.854 44.958 164.132 46.025Z" fill="#1B1A43"/>
<path fill-rule="evenodd" clip-rule="evenodd" d="M179.251 71.443C180.493 72.168 181.899 72.551 183.352 72.552H183.364C184.644 72.552 185.962 72.239 187.151 71.606H187.152C188.505 70.893 189.593 69.82 190.321 68.587C191.05 67.352 191.435 65.949 191.435 64.511V64.497V64.496C191.435 63.224 191.123 61.917 190.487 60.733C189.769 59.391 188.693 58.308 187.448 57.584C186.208 56.858 184.799 56.478 183.348 56.477H183.336C182.055 56.477 180.736 56.787 179.541 57.423V57.424C178.19 58.136 177.103 59.207 176.377 60.438C175.648 61.673 175.264 63.07 175.264 64.509H175.262V64.528C175.262 65.799 175.574 67.109 176.212 68.294C176.93 69.636 178.008 70.72 179.251 71.443Z" fill="#1B1A43"/>
</svg>
